<?xml version="1.0" encoding="UTF-8"?>
<!DOCTYPE svg PUBLIC "-//W3C//DTD SVG 1.1//EN" "http://www.w3.org/Graphics/SVG/1.1/DTD/svg11.dtd">
<!-- Creator: CorelDRAW 2020 (64-Bit) -->
<svg xmlns="http://www.w3.org/2000/svg" xml:space="preserve" width="2000px" height="561px" version="1.1" style="shape-rendering:geometricPrecision; text-rendering:geometricPrecision; image-rendering:optimizeQuality; fill-rule:evenodd; clip-rule:evenodd"
viewBox="0 0 218.398 59.831"
 xmlns:xlink="http://www.w3.org/1999/xlink"
 xmlns:xodm="http://www.corel.com/coreldraw/odm/2003">
 <defs>
  <style type="text/css">
   <![CDATA[
    .fil0 {fill:red;fill-rule:nonzero}
   ]]>
  </style>
 </defs>
 <g id="Layer_x0020_1">
  <metadata id="CorelCorpID_0Corel-Layer"/>
  <g id="_1424870426224">
   <path class="fil0" d="M114.896 25.798c0,-1.619 1.311,-2.93 2.93,-2.93 1.617,0 2.929,1.311 2.929,2.93l0 9.764c0,3.497 -1.425,6.671 -3.724,8.97 -2.298,2.298 -5.474,3.723 -8.97,3.723l-19.529 0c-3.497,0 -6.671,-1.425 -8.969,-3.723 -2.299,-2.299 -3.724,-5.473 -3.724,-8.97l0 -9.764c0,-1.619 1.311,-2.93 2.929,-2.93 1.617,0 2.929,1.311 2.929,2.93l0 9.764c0,1.881 0.769,3.589 2.007,4.828 1.239,1.239 2.947,2.007 4.828,2.007l19.529 0c1.88,0 3.588,-0.768 4.828,-2.007 1.238,-1.239 2.007,-2.947 2.007,-4.828l0 -9.764zm98.761 24.552c1.31,0 2.494,0.53 3.353,1.388 0.858,0.859 1.388,2.043 1.388,3.352 0,1.31 -0.53,2.496 -1.388,3.353 -0.859,0.858 -2.043,1.388 -3.353,1.388 -1.309,0 -2.494,-0.53 -3.352,-1.388 -0.858,-0.857 -1.388,-2.043 -1.388,-3.353 0,-1.309 0.53,-2.493 1.388,-3.352 0.858,-0.858 2.043,-1.388 3.352,-1.388zm-66.539 0c1.309,0 2.494,0.53 3.353,1.388 0.858,0.859 1.388,2.043 1.388,3.352 0,1.31 -0.53,2.496 -1.388,3.353 -0.859,0.858 -2.044,1.388 -3.353,1.388 -1.309,0 -2.495,-0.53 -3.352,-1.388 -0.858,-0.857 -1.388,-2.043 -1.388,-3.353 0,-1.309 0.53,-2.493 1.388,-3.352 0.857,-0.858 2.043,-1.388 3.352,-1.388zm-48.822 0c2.618,0 4.741,2.122 4.741,4.74 0,2.619 -2.123,4.741 -4.741,4.741 -2.618,0 -4.74,-2.122 -4.74,-4.741 0,-2.618 2.122,-4.74 4.74,-4.74zm78.115 -21.623c-1.617,0 -2.929,-1.312 -2.929,-2.929 0,-1.619 1.312,-2.93 2.929,-2.93l29.294 0c3.497,0 6.671,1.425 8.969,3.723 2.299,2.299 3.724,5.474 3.724,8.971 0,3.497 -1.425,6.672 -3.724,8.97 -2.298,2.298 -5.472,3.723 -8.969,3.723l-22.222 0 3.906 3.906 15.847 0c1.617,0 2.929,1.312 2.929,2.929 0,1.619 -1.312,2.93 -2.929,2.93l-17.061 0c-0.749,0 -1.498,-0.287 -2.07,-0.859l-9.74 -9.739c-0.545,-0.532 -0.883,-1.274 -0.883,-2.096 0,-1.617 1.312,-2.929 2.929,-2.929l29.294 0c1.881,0 3.588,-0.768 4.828,-2.007 1.238,-1.239 2.007,-2.947 2.007,-4.828 0,-1.881 -0.769,-3.589 -2.007,-4.828 -1.24,-1.239 -2.947,-2.007 -4.828,-2.007l-29.294 0zm-6.834 27.222c0,0.808 -0.328,1.54 -0.858,2.071 -0.53,0.53 -1.263,0.858 -2.072,0.858 -1.617,0 -2.929,-1.312 -2.929,-2.929l0 -20.387c0,-1.881 -0.769,-3.589 -2.007,-4.828 -1.24,-1.238 -2.948,-2.007 -4.828,-2.007l-19.529 0c-1.88,0 -3.59,0.769 -4.828,2.007 -1.238,1.239 -2.007,2.947 -2.007,4.828l0 20.387c0,1.617 -1.312,2.929 -2.929,2.929 -1.618,0 -2.93,-1.312 -2.93,-2.929l0 -20.387c0,-3.497 1.426,-6.671 3.724,-8.971 2.299,-2.297 5.472,-3.723 8.97,-3.723l19.529 0c3.497,0 6.671,1.426 8.969,3.723 2.299,2.3 3.725,5.474 3.725,8.971l0 20.387z"/>
   <path class="fil0" d="M63.752 27.733l-13.44 7.76 0.001 0c-0.413,0.239 -0.736,0.559 -0.952,0.935l0 0.002c-0.214,0.369 -0.329,0.801 -0.333,1.27l0 15.542c0,1.813 -0.741,3.46 -1.935,4.654 -1.063,1.063 -2.484,1.767 -4.061,1.909l0 0.024 -0.421 0 -0.173 0.002 0 -0.002c-1.814,0 -3.461,-0.741 -4.654,-1.933 -1.194,-1.194 -1.935,-2.841 -1.935,-4.654l0.002 0 0 -19.707 -0.002 0c0,-1.555 0.388,-3.005 1.116,-4.264l0.001 0c0.725,-1.257 1.786,-2.317 3.135,-3.095l17.067 -9.853c1.569,-0.907 3.366,-1.089 4.995,-0.653 1.452,0.39 2.773,1.268 3.684,2.564l0.021 -0.012 0.238 0.411 0.059 0.1 0 0.002c0.056,0.099 0.109,0.196 0.161,0.297l0.076 0.15 0.069 0.152c0.637,1.418 0.729,2.971 0.346,4.396 -0.437,1.632 -1.493,3.097 -3.061,4.003l-0.004 0zm-14.032 -0.187l15.097 -8.717c-0.745,-1.014 -1.801,-1.704 -2.959,-2.015 -1.34,-0.358 -2.816,-0.21 -4.102,0.532l-11.07 6.392c-1.164,0.671 -2.079,1.584 -2.702,2.663l-0.001 0c-0.621,1.076 -0.951,2.324 -0.951,3.672l0 28.54c1.249,-0.138 2.375,-0.708 3.223,-1.555 0.979,-0.98 1.587,-2.33 1.587,-3.816l0 -22.445c0,-0.685 0.173,-1.326 0.494,-1.884l0.001 0c0.323,-0.557 0.791,-1.026 1.383,-1.367zm-31.7 25.695l0 -15.519 -0.001 0c0,-0.477 -0.115,-0.916 -0.332,-1.292l-0.003 -0.001c-0.212,-0.369 -0.529,-0.686 -0.932,-0.922l-13.461 -7.772c-1.57,-0.906 -2.626,-2.372 -3.063,-4.002 -0.389,-1.453 -0.287,-3.035 0.378,-4.472l-0.022 -0.012 0.211 -0.364 0.084 -0.151 0.002 0.001c0.907,-1.571 2.372,-2.628 4.001,-3.064 1.631,-0.437 3.429,-0.256 4.999,0.651l-0.001 0.002 17.067 9.854 0.001 -0.002c1.347,0.777 2.408,1.838 3.135,3.097l-0.001 0.001c0.725,1.257 1.113,2.706 1.113,4.263l0 19.707c0,1.813 -0.741,3.459 -1.934,4.652 -1.062,1.063 -2.484,1.767 -4.062,1.908l0 0.026 -0.475 0 -0.116 0.001 -0.002 -0.001c-0.113,-0.001 -0.225,-0.004 -0.338,-0.009l-0.167 -0.01 -0.167 -0.015c-1.546,-0.158 -2.936,-0.856 -3.98,-1.9 -1.194,-1.193 -1.935,-2.84 -1.935,-4.652l0.001 -0.003zm7.179 -12.058l0 17.432c1.251,-0.138 2.377,-0.708 3.225,-1.555 0.981,-0.982 1.59,-2.333 1.59,-3.819l0 -12.782c0,-1.344 -0.333,-2.592 -0.957,-3.672l0.001 -0.001c-0.62,-1.074 -1.536,-1.985 -2.703,-2.66l-24.717 -14.269c-0.505,1.151 -0.575,2.41 -0.265,3.568 0.359,1.339 1.225,2.54 2.51,3.283l19.439 11.223c0.594,0.342 1.063,0.812 1.384,1.37l-0.001 0.001c0.322,0.557 0.494,1.197 0.494,1.881zm-6.401 -40.301l13.44 7.759 0.001 0c0.412,0.238 0.851,0.358 1.285,0.358l0.001 -0.001c0.427,0 0.859,-0.116 1.266,-0.348l13.461 -7.771c1.569,-0.906 3.367,-1.088 4.998,-0.651 1.451,0.388 2.771,1.268 3.683,2.563l0.022 -0.012 0.209 0.364 0.089 0.148 -0.002 0.001c0.907,1.572 1.089,3.368 0.653,4.997 -0.437,1.632 -1.493,3.097 -3.063,4.004l-0.001 -0.002 -17.067 9.853 0.001 0.003c-1.347,0.777 -2.797,1.166 -4.25,1.166l0 -0.002c-1.451,0 -2.9,-0.389 -4.249,-1.168l-17.067 -9.854c-1.569,-0.905 -2.625,-2.37 -3.062,-4 -0.389,-1.451 -0.288,-3.034 0.379,-4.471l-0.022 -0.013 0.237 -0.412 0.057 -0.1 0.002 -0.001c0.057,-0.098 0.115,-0.193 0.177,-0.29l0.093 -0.139 0.096 -0.136c0.909,-1.26 2.209,-2.116 3.634,-2.498 1.631,-0.437 3.428,-0.255 4.997,0.651l0.002 0.002zm6.854 12.246l-15.098 -8.716c-0.505,1.152 -0.575,2.412 -0.264,3.571 0.358,1.34 1.225,2.542 2.511,3.285l11.07 6.392c1.164,0.671 2.412,1.008 3.658,1.008l0 0.001c1.241,-0.001 2.488,-0.338 3.656,-1.013l24.716 -14.269c-0.745,-1.014 -1.801,-1.704 -2.958,-2.014 -1.339,-0.358 -2.812,-0.209 -4.098,0.534l-19.439 11.222c-0.593,0.343 -1.234,0.513 -1.879,0.513l0 -0.001c-0.643,0 -1.283,-0.171 -1.875,-0.513z"/>
  </g>
 </g>
</svg>
